<svg width="385" height="360" viewBox="0 0 385 360" fill="none" xmlns="http://www.w3.org/2000/svg">
<path d="M80.2474 201.745L30.0872 155.231C20.105 145.974 19.7145 130.54 29.2156 120.786L76.9586 71.7742C86.4597 62.0206 102.279 61.6171 112.261 70.8736L162.421 117.388C172.403 126.644 172.794 142.079 163.293 151.833L115.55 200.844C106.048 210.598 90.2296 211.002 80.2474 201.745Z" fill="#DAFFDE"/>
<path d="M163.247 148.081L113.087 101.567C103.105 92.3105 102.714 76.8757 112.216 67.1221L159.959 18.1104C169.46 8.3568 185.279 7.95325 195.261 17.2098L245.421 63.724C255.403 72.9806 255.794 88.4153 246.293 98.1689L198.55 147.181C189.048 156.934 173.23 157.338 163.247 148.081Z" fill="#E6DAFF"/>
<path d="M174.247 232.97L124.087 186.456C114.105 177.199 113.714 161.764 123.216 152.011L170.959 102.999C180.46 93.2454 196.279 92.8418 206.261 102.098L256.421 148.613C266.403 157.869 266.794 173.304 257.293 183.057L209.55 232.069C200.048 241.823 184.23 242.226 174.247 232.97Z" fill="#F7C274"/>
<path d="M115.247 328.589L65.0872 282.075C55.105 272.818 54.7145 257.384 64.2156 247.63L111.959 198.618C121.46 188.865 137.279 188.461 147.261 197.718L197.421 244.232C207.403 253.488 207.794 268.923 198.293 278.677L150.55 327.688C141.048 337.442 125.23 337.846 115.247 328.589Z" fill="#FBE8C3"/>
<path d="M213.247 343.225L163.087 296.711C153.105 287.454 152.714 272.019 162.216 262.266L209.959 213.254C219.46 203.5 235.279 203.097 245.261 212.353L295.421 258.867C305.403 268.124 305.794 283.559 296.293 293.312L248.55 342.324C239.048 352.078 223.23 352.481 213.247 343.225Z" fill="#6091FF"/>
<path d="M257.247 191.012L207.087 144.498C197.105 135.241 196.714 119.807 206.216 110.053L253.959 61.0414C263.46 51.2878 279.279 50.8842 289.261 60.1408L339.421 106.655C349.403 115.912 349.794 131.346 340.293 141.1L292.55 190.112C283.048 199.865 267.23 200.269 257.247 191.012Z" fill="#FAC2D3"/>
<path d="M284.247 267.12L234.087 220.605C224.105 211.349 223.714 195.914 233.216 186.16L280.959 137.149C290.46 127.395 306.279 126.992 316.261 136.248L366.421 182.762C376.403 192.019 376.794 207.454 367.293 217.207L319.55 266.219C310.048 275.973 294.23 276.376 284.247 267.12Z" fill="#9FFF65" fill-opacity="0.5"/>
<path d="M68.2474 265.167L18.0872 218.653C8.10504 209.396 7.71447 193.962 17.2156 184.208L64.9586 135.196C74.4597 125.443 90.2786 125.039 100.261 134.296L150.421 180.81C160.403 190.066 160.794 205.501 151.293 215.255L103.55 264.266C94.0484 274.02 78.2296 274.424 68.2474 265.167Z" fill="#DAEFFF"/>
</svg>
